<?xml version="1.0" encoding="UTF-8" standalone="no"?>
<!-- Created with Inkscape (http://www.inkscape.org/) -->

<svg
   xmlns:dc="http://purl.org/dc/elements/1.1/"
   xmlns:cc="http://creativecommons.org/ns#"
   xmlns:rdf="http://www.w3.org/1999/02/22-rdf-syntax-ns#"
   xmlns:svg="http://www.w3.org/2000/svg"
   xmlns="http://www.w3.org/2000/svg"
   xmlns:sodipodi="http://sodipodi.sourceforge.net/DTD/sodipodi-0.dtd"
   xmlns:inkscape="http://www.inkscape.org/namespaces/inkscape"
   width="300mm"
   height="300mm"
   viewBox="0 0 300 300"
   version="1.1"
   id="svg1997"
   sodipodi:docname="btn_close.svg"
   inkscape:version="0.48.4 r9939">
  <defs
     id="defs1991" />
  <sodipodi:namedview
     id="base"
     pagecolor="#ffffff"
     bordercolor="#666666"
     borderopacity="1.0"
     inkscape:pageopacity="0.0"
     inkscape:pageshadow="2"
     inkscape:zoom="0.35"
     inkscape:cx="370.453"
     inkscape:cy="352.47953"
     inkscape:document-units="mm"
     inkscape:current-layer="svg1997"
     showgrid="false"
     inkscape:window-width="1440"
     inkscape:window-height="847"
     inkscape:window-x="-8"
     inkscape:window-y="22"
     inkscape:window-maximized="1"
     showguides="true"
     inkscape:guide-bbox="true"
     inkscape:snap-page="true"
     inkscape:lockguides="false"
     inkscape:snap-grids="true" />
  <metadata
     id="metadata1994">
    <rdf:RDF>
      <cc:Work
         rdf:about="">
        <dc:format>image/svg+xml</dc:format>
        <dc:type
           rdf:resource="http://purl.org/dc/dcmitype/StillImage" />
        <dc:title></dc:title>
      </cc:Work>
    </rdf:RDF>
  </metadata>
  <path
     style="fill:#f3f3f3;fill-opacity:0;stroke:#000000;stroke-width:0.26458332000000001px;stroke-linecap:butt;stroke-linejoin:miter;stroke-opacity:1"
     d="M 1.6392531,0.5090066 V 299.85088 H 299.91206 V -0.0255324 z"
     id="path2590"
     inkscape:connector-curvature="0" />
  <g
     inkscape:label="Layer 1"
     inkscape:groupmode="layer"
     id="layer1"
     transform="translate(0,3)"
     style="display:inline" />
  <path
     style="opacity:0;fill:#999999;fill-opacity:0.97448982;fill-rule:nonzero;stroke:none;stroke-width:0.26499999;stroke-miterlimit:4;stroke-dasharray:none;stroke-opacity:1"
     id="path2603"
     sodipodi:type="arc"
     sodipodi:cx="230.11906"
     sodipodi:cy="28.72143"
     sodipodi:rx="35.546848"
     sodipodi:ry="18.976137"
     sodipodi:start="0"
     sodipodi:end="0.72352065"
     d="M 265.66591,28.72143 A 35.546848,18.976137 0 0 1 256.7607,41.284153 L 230.11906,28.72143 Z" />
  <path
     style="opacity:0;fill:#4d4d4d;fill-opacity:0.97448982;fill-rule:nonzero;stroke:none;stroke-width:0.26499999;stroke-miterlimit:4;stroke-dasharray:none;stroke-opacity:1"
     id="path2607"
     sodipodi:type="arc"
     sodipodi:cx="95.147957"
     sodipodi:cy="24.177851"
     sodipodi:rx="25.657875"
     sodipodi:ry="11.759859"
     sodipodi:start="0"
     sodipodi:end="0.72352101"
     d="M 120.80583,24.177851 A 25.657875,11.759859 0 0 1 114.378,31.963203 L 95.147957,24.177851 Z" />
  <path
     style="fill:#808080;fill-opacity:1;stroke:none"
     d="m 206.90312,99.355595 c -3.49504,-3.43242 -9.1225,-3.43242 -12.61754,0 L 152.32957,140.55979 110.37843,99.360385 c -3.49505,-3.43242 -9.1225,-3.43242 -12.617545,0 -3.495047,3.432425 -3.495047,8.959035 0,12.391445 l 41.951135,41.1994 -41.951135,41.1994 c -3.495047,3.43241 -3.495047,8.95902 0,12.39144 3.495045,3.43241 9.122495,3.43241 12.617545,0 l 41.95114,-41.1994 41.95601,41.20419 c 3.49504,3.43242 9.1225,3.43242 12.61754,0 3.49505,-3.43242 3.49505,-8.95902 0,-12.39144 l -41.95601,-41.20419 41.95601,-41.20418 c 3.49505,-3.43243 3.49505,-8.95903 0,-12.391455 z"
     id="rect3003"
     inkscape:connector-curvature="0" />
</svg>
